<?xml version="1.0" encoding="UTF-8"?>
<svg width="40px" height="40px" viewBox="0 0 40 40" version="1.1" xmlns="http://www.w3.org/2000/svg" xmlns:xlink="http://www.w3.org/1999/xlink">
    <!-- Generator: Sketch 47.1 (45422) - http://www.bohemiancoding.com/sketch -->
    <title>Shape</title>
    <desc>Created with Sketch.</desc>
    <defs></defs>
    <g id="Full-Page-Ideas" stroke="none" stroke-width="1" fill="none" fill-rule="evenodd">
        <g id="Idea-9" transform="translate(-161.000000, -8272.000000)" fill-rule="nonzero" fill="#FCFCFC">
            <g id="Footer" transform="translate(-10.000000, 8162.000000)">
                <g id="Group-11" transform="translate(91.000000, 60.000000)">
                    <g id="Social-Media-Icons" transform="translate(2.000000, 50.000000)">
                        <path d="M109.666667,0 L86.3333333,0 C81.7316667,0 78,3.73166667 78,8.33333333 L78,31.6666667 C78,36.2683333 81.7316667,40 86.3333333,40 L109.666667,40 C114.27,40 118,36.2683333 118,31.6666667 L118,8.33333333 C118,3.73166667 114.27,0 109.666667,0 Z M102.223333,32.65 C101.548333,32.78 101.333333,32.365 101.333333,32.01 L101.333333,28.3516667 C101.333333,27.1066667 100.896667,26.2966667 100.416667,25.8833333 C103.386667,25.5533333 106.506667,24.425 106.506667,19.305 C106.506667,17.8483333 105.986667,16.6583333 105.135,15.7266667 C105.271667,15.39 105.728333,14.0333333 105.003333,12.1983333 C105.003333,12.1983333 103.885,11.84 101.34,13.565 C100.273333,13.265 99.1333333,13.12 98,13.1133333 C96.8666667,13.1183333 95.7266667,13.265 94.6616667,13.5616667 C92.115,11.8366667 90.995,12.195 90.995,12.195 C90.2716667,14.0316667 90.7283333,15.3866667 90.8666667,15.725 C90.0133333,16.6583333 89.4933333,17.8466667 89.4933333,19.3033333 C89.4933333,24.41 92.605,25.555 95.5683333,25.8933333 C95.1866667,26.2266667 94.8416667,26.8133333 94.7216667,27.6766667 C93.96,28.0166667 92.0316667,28.605 90.8416667,26.5666667 C90.8416667,26.5666667 90.1366667,25.2866667 88.7966667,25.1916667 C88.7966667,25.1916667 87.4966667,25.175 88.705,26.0033333 C88.705,26.0033333 89.58,26.4133333 90.1866667,27.9533333 C90.1866667,27.9533333 90.9583333,30.3333333 94.6666667,29.5266667 L94.6666667,32.0083333 C94.6666667,32.36 94.4516667,32.7733333 93.7866667,32.65 C88.4866667,30.8883333 84.6666667,25.89 84.6666667,20 C84.6666667,12.635 90.6366667,6.66666667 98,6.66666667 C105.363333,6.66666667 111.333333,12.635 111.333333,20 C111.333333,25.8883333 107.518333,30.885 102.223333,32.65 L102.223333,32.65 Z" id="Shape"></path>
                    </g>
                </g>
            </g>
        </g>
    </g>
</svg>