<?xml version="1.0" encoding="UTF-8"?>
<svg width="125px" height="136px" viewBox="0 0 125 136" version="1.1" xmlns="http://www.w3.org/2000/svg" xmlns:xlink="http://www.w3.org/1999/xlink">
    <!-- Generator: Sketch 47.1 (45422) - http://www.bohemiancoding.com/sketch -->
    <title>Shape</title>
    <desc>Created with Sketch.</desc>
    <defs></defs>
    <g id="Full-Page-Ideas" stroke="none" stroke-width="1" fill="none" fill-rule="evenodd">
        <g id="Idea-9" transform="translate(-291.000000, -1307.000000)" fill="#D5A98C">
            <path d="M356.582667,1443 L351.417333,1443 C350.059556,1443 348.753778,1442.526 347.858222,1441.692 L341,1437 L367,1437 L360.136,1441.692 C359.246222,1442.526 357.940444,1443 356.582667,1443 Z M367.121267,1432 L340.878733,1432 C339.289673,1432 338,1430.662 338,1429 C338,1427.344 339.289673,1426 340.878733,1426 L367.121267,1426 C368.710327,1426 370,1427.344 370,1429 C370,1430.662 368.710327,1432 367.121267,1432 Z M357.368272,1420 C358.229462,1393.33876 375.66289,1380.8893 375.66289,1367.55585 C375.66289,1354.31873 365.300283,1346.33452 353.045326,1346.33452 C341.866856,1346.33452 330.331445,1353.31574 330.331445,1367.60684 C330.331445,1380.9063 348.399433,1395.95672 348.603399,1420 L337.209632,1420 C337.11898,1397.37336 319,1388.05751 319,1367.56151 C319,1347.51884 335.073654,1334.84837 353.379603,1335.00137 C372.002833,1335.3017 387,1348.28382 387,1367.56718 C387,1388.11418 368.932011,1396.90871 368.784703,1420 L357.368272,1420 Z M397.018697,1379 L412,1385.83125 L407.409582,1396 L393,1389.43106 C394.670757,1386.0824 396.052878,1382.65003 397.018697,1379 L397.018697,1379 Z M309.004387,1379 C309.965779,1382.70584 311.310617,1386.03775 313,1389.43664 L298.595788,1396 L294,1385.83125 L309.004387,1379 Z M416,1369 L399.044542,1369 C399.163112,1365.315 398.818695,1361.6025 398,1358 L416,1358 L416,1369 Z M307.960778,1369 L291,1369 L291,1358 L309,1358 C308.192344,1361.597 307.853467,1365.293 307.960778,1368.9725 L307.960778,1369 L307.960778,1369 Z M388,1338.82893 L402.324732,1329 L409,1338.09302 L394.559978,1348 C392.87675,1344.75528 390.697777,1341.68897 388,1338.82893 L388,1338.82893 Z M319,1338.82624 C316.346883,1341.63135 314.17248,1344.68183 312.436419,1348 L298,1338.09569 L304.673167,1329 L319,1338.82624 Z M370,1326.04895 L377.655769,1311 L388,1315.95105 L380.344231,1331 C377.130769,1328.94685 373.646154,1327.28531 370,1326.04895 L370,1326.04895 Z M338,1326.05039 C334.359615,1327.28219 330.869231,1328.93953 327.65,1331 L320,1315.95521 L330.35,1311 L338,1326.05039 L338,1326.05039 Z M359,1324 C355.326,1323.56681 351.8005,1323.54459 348,1323.98334 L348,1307 L359,1307 L359,1324 Z" id="Shape"></path>
        </g>
    </g>
</svg>