<?xml version="1.0" encoding="UTF-8"?>
<svg width="40px" height="40px" viewBox="0 0 40 40" version="1.1" xmlns="http://www.w3.org/2000/svg" xmlns:xlink="http://www.w3.org/1999/xlink">
    <!-- Generator: Sketch 47.1 (45422) - http://www.bohemiancoding.com/sketch -->
    <title>Shape</title>
    <desc>Created with Sketch.</desc>
    <defs></defs>
    <g id="Full-Page-Ideas" stroke="none" stroke-width="1" fill="none" fill-rule="evenodd">
        <g id="Idea-9" transform="translate(-83.000000, -8272.000000)" fill-rule="nonzero" fill="#FCFCFC">
            <g id="Footer" transform="translate(-10.000000, 8162.000000)">
                <g id="Group-11" transform="translate(91.000000, 60.000000)">
                    <g id="Social-Media-Icons" transform="translate(2.000000, 50.000000)">
                        <path d="M31.6666667,0 L8.33333333,0 C3.73166667,0 0,3.73166667 0,8.33333333 L0,31.6666667 C0,36.2683333 3.73166667,40 8.33333333,40 L31.6666667,40 C36.27,40 40,36.2683333 40,31.6666667 L40,8.33333333 C40,3.73166667 36.27,0 31.6666667,0 Z M13.3333333,31.6666667 L8.33333333,31.6666667 L8.33333333,13.3333333 L13.3333333,13.3333333 L13.3333333,31.6666667 Z M10.8333333,11.22 C9.22333333,11.22 7.91666667,9.90333333 7.91666667,8.28 C7.91666667,6.65666667 9.22333333,5.34 10.8333333,5.34 C12.4433333,5.34 13.75,6.65666667 13.75,8.28 C13.75,9.90333333 12.445,11.22 10.8333333,11.22 Z M33.3333333,31.6666667 L28.3333333,31.6666667 L28.3333333,22.3266667 C28.3333333,16.7133333 21.6666667,17.1383333 21.6666667,22.3266667 L21.6666667,31.6666667 L16.6666667,31.6666667 L16.6666667,13.3333333 L21.6666667,13.3333333 L21.6666667,16.275 C23.9933333,11.965 33.3333333,11.6466667 33.3333333,20.4016667 L33.3333333,31.6666667 Z" id="Shape"></path>
                    </g>
                </g>
            </g>
        </g>
    </g>
</svg>