<?xml version="1.0" encoding="UTF-8"?>
<svg width="129px" height="129px" viewBox="0 0 129 129" version="1.1" xmlns="http://www.w3.org/2000/svg" xmlns:xlink="http://www.w3.org/1999/xlink">
    <!-- Generator: Sketch 47.1 (45422) - http://www.bohemiancoding.com/sketch -->
    <title>Shape</title>
    <desc>Created with Sketch.</desc>
    <defs></defs>
    <g id="Full-Page-Ideas" stroke="none" stroke-width="1" fill="none" fill-rule="evenodd">
        <g id="Idea-9" transform="translate(-1004.000000, -1307.000000)" fill-rule="nonzero" fill="#D5A98C">
            <g id="Group-9" transform="translate(905.000000, 1307.000000)">
                <path d="M131,117 L131,32 L216,32 L216,72.0721875 C216,93.890625 184.125,85.125 184.125,85.125 C184.125,85.125 192.189375,117 170.110625,117 L131,117 Z M228,77.0844 L228,21 L120,21 L120,129 L175.0206,129 C192.1008,129 228,89.9958 228,77.0844 Z M175,85 L148,85 L148,80 L175,80 L175,85 Z M202,65 L148,65 L148,70 L202,70 L202,65 Z M202,49 L148,49 L148,54 L202,54 L202,49 Z M217,15.4 L114.4,15.4 L114.4,118 L109,118 L109,10 L217,10 L217,15.4 Z M207,5.4 L104.4,5.4 L104.4,108 L99,108 L99,0 L207,0 L207,5.4 Z" id="Shape"></path>
            </g>
        </g>
    </g>
</svg>