<?xml version="1.0" encoding="UTF-8"?>
<svg width="145px" height="133px" viewBox="0 0 145 133" version="1.1" xmlns="http://www.w3.org/2000/svg" xmlns:xlink="http://www.w3.org/1999/xlink">
    <!-- Generator: Sketch 47.1 (45422) - http://www.bohemiancoding.com/sketch -->
    <title>Shape</title>
    <desc>Created with Sketch.</desc>
    <defs></defs>
    <g id="Full-Page-Ideas" stroke="none" stroke-width="1" fill="none" fill-rule="evenodd">
        <g id="Idea-11" transform="translate(-995.000000, -1331.000000)" fill-rule="nonzero" fill="#D5A98C">
            <path d="M1055.5,1343 C1082.24169,1343 1104,1360.12826 1104,1381.17635 C1104,1399.42285 1085.63669,1419.11824 1055.95469,1419.11824 C1046.37594,1419.11824 1039.47681,1417.21242 1033.41431,1415.74549 C1027.55794,1419.31062 1025.79981,1420.63327 1015.19044,1424 C1017.70637,1414.87375 1017.38506,1410.88176 1017.19713,1404.85772 C1012.12281,1398.83968 1007,1392.41884 1007,1381.17635 C1007,1360.12826 1028.75831,1343 1055.5,1343 Z M1055.5,1331 C1023.54995,1331 995,1352.31848 995,1381.49687 C995,1391.84171 998.72075,1401.99913 1005.31525,1409.88322 C1005.5996,1419.11558 1000.1667,1432.36255 995.2662,1442 C1008.3826,1439.63598 1027.0408,1434.39403 1035.49265,1429.21254 C1042.6377,1430.95986 1049.48025,1431.75794 1055.95375,1431.75794 C1091.6669,1431.75794 1116,1407.34386 1116,1381.49687 C1116,1352.16128 1087.25645,1331 1055.5,1331 Z M1125.1543,1399 C1124.18497,1401.92971 1122.98083,1404.76937 1121.53587,1407.50097 C1131.63254,1415.0774 1135.12454,1426.86829 1124.32946,1439.7098 C1124.20303,1444.18241 1124.03445,1446.00748 1125.16032,1450.90635 C1119.78987,1449.06327 1119.26607,1448.55297 1115.13589,1446.02549 C1102.32991,1449.14131 1089.4577,1450.20393 1078.47598,1440.89249 C1075.09236,1441.84705 1071.5823,1442.56147 1068,1443.07777 C1077.10929,1454.34636 1093.87687,1460.46994 1113.61868,1455.68514 C1119.12158,1459.05311 1131.27732,1462.45109 1139.82067,1464 C1136.62971,1457.72633 1133.09557,1449.1173 1133.27017,1443.11379 C1143.83646,1430.51843 1142.56008,1410.47871 1125.1543,1399 L1125.1543,1399 Z M1034.5,1376 C1030.91317,1376 1028,1378.9071 1028,1382.5 C1028,1386.0929 1030.91317,1389 1034.5,1389 C1038.08683,1389 1041,1386.0929 1041,1382.5 C1041,1378.9071 1038.08683,1376 1034.5,1376 Z M1055.5,1376 C1051.91317,1376 1049,1378.9071 1049,1382.5 C1049,1386.0929 1051.91317,1389 1055.5,1389 C1059.08683,1389 1062,1386.0929 1062,1382.5 C1062,1378.9071 1059.08683,1376 1055.5,1376 Z M1076.5,1376 C1072.91317,1376 1070,1378.9071 1070,1382.5 C1070,1386.0929 1072.91317,1389 1076.5,1389 C1080.08683,1389 1083,1386.0929 1083,1382.5 C1083,1378.9071 1080.08683,1376 1076.5,1376 Z" id="Shape"></path>
        </g>
    </g>
</svg>