<?xml version="1.0" encoding="UTF-8"?>
<svg width="92px" height="129px" viewBox="0 0 92 129" version="1.1" xmlns="http://www.w3.org/2000/svg" xmlns:xlink="http://www.w3.org/1999/xlink">
    <!-- Generator: Sketch 47.1 (45422) - http://www.bohemiancoding.com/sketch -->
    <title>ES6LOGO</title>
    <desc>Created with Sketch.</desc>
    <defs></defs>
    <g id="Full-Page-Ideas" stroke="none" stroke-width="1" fill="none" fill-rule="evenodd">
        <g id="Idea-9" transform="translate(-868.000000, -6558.000000)" fill-rule="nonzero">
            <g id="Skills" transform="translate(0.000000, 5855.000000)">
                <g id="Group-13" transform="translate(856.000000, 293.000000)">
                    <g id="ES6LOGO" transform="translate(12.000000, 410.000000)">
                        <polygon id="Shape" fill="#FFCC33" points="8.37263406 118.604039 0 25 92 25 83.6187057 118.588932 45.9437082 129"></polygon>
                        <polygon id="Shape" fill="#F8DC3D" points="46 120 75.9527577 111.719762 83 33 46 33"></polygon>
                        <g id="Group" transform="translate(19.000000, 37.000000)">
                            <g transform="translate(26.856391, 0.000000)" id="Shape" fill="#FFFFFF">
                                <polygon points="0.290423764 27.2588936 0.290423764 38.6676766 14.6095645 41.7315064 13.2598747 56.5276596 0.290423764 59.9625191 0.290423764 71.8324085 24.1301551 65.3499574 24.3044094 63.4225021 27.3204445 33.3865532"></polygon>
                                <polygon points="24.0227295 6.65954043 0.1829982 0.177089362 0.1829982 12.0469787 24.0355332 18.6397277"></polygon>
                            </g>
                            <polygon id="Shape" fill="#EBEBEB" points="27.1870994 27.2588936 12.1175412 30.3227234 14.0771209 15.4738723 27.0284594 12.0426894 27.0796739 12.056783 27.0796739 0.186280851 27.0259611 0.171574468 3.20527905 6.65954043 0.132408254 30.3227234 0.126787149 30.3227234 0.12866085 30.3469277 0.126787149 30.3637787 0.130534552 30.3637787 1.16388104 41.7315064 1.22040438 41.7315064 3.31239233 65.3499574 27.1333867 71.8379234 27.1870994 71.8229106 27.1870994 59.9524085 27.1358849 59.9668085 14.1845465 56.5353191 12.8901309 41.7315064 27.1870994 38.6676766"></polygon>
                        </g>
                        <g id="Group" transform="translate(29.000000, 0.000000)" fill="#131313">
                            <polygon id="Shape" points="33.5116364 4.63682456 25.8808 4.63682456 33.8164 12.9456491 33.8164 16.900386 17.4707455 16.900386 17.4707455 12.2701228 25.4051091 12.2701228 17.4707455 3.961 17.4707455 0 33.5116364 0"></polygon>
                            <polygon id="Shape" points="14.1916 4.82501754 14.1916 0 0.105709091 0 0.105709091 16.900386 14.1916 16.900386 14.1916 12.0762632 5.95772727 12.0762632 5.95772727 10.3905789 13.8825091 10.3905789 13.8825091 6.51010526 5.95772727 6.51010526 5.95772727 4.82501754"></polygon>
                        </g>
                    </g>
                </g>
            </g>
        </g>
    </g>
</svg>