<?xml version="1.0" encoding="UTF-8"?>
<svg width="79px" height="78px" viewBox="0 0 79 78" version="1.1" xmlns="http://www.w3.org/2000/svg" xmlns:xlink="http://www.w3.org/1999/xlink">
    <!-- Generator: Sketch 47.1 (45422) - http://www.bohemiancoding.com/sketch -->
    <title>25231</title>
    <desc>Created with Sketch.</desc>
    <defs></defs>
    <g id="Full-Page-Ideas" stroke="none" stroke-width="1" fill="none" fill-rule="evenodd">
        <g id="Idea-9" transform="translate(-1130.000000, -6422.000000)" fill-rule="nonzero" fill="#71B5C1">
            <g id="Skills" transform="translate(0.000000, 5855.000000)">
                <g id="Group-13" transform="translate(856.000000, 293.000000)">
                    <g id="25231" transform="translate(274.000000, 274.000000)">
                        <path d="M73.7013403,19.9108367 C70.1691408,13.7856035 65.3779375,8.93624782 59.3264697,5.36167576 C53.2741012,1.78692139 46.6667191,0 39.4996397,0 C32.333461,0 25.7239172,1.78746835 19.6728097,5.36167576 C13.6208015,8.9360655 8.8297784,13.7856035 5.29757882,19.9108367 C1.76591965,26.0358877 0,32.7244907 0,39.9764634 C0,48.687728 2.51116188,56.5211202 7.53474664,63.4786457 C12.557791,70.4367181 19.0468206,75.2514329 27.0012952,77.9233371 C27.9272186,78.0972707 28.6126541,77.9749338 29.0583223,77.5594258 C29.5041706,77.1433708 29.7268246,76.6222994 29.7268246,75.9983993 C29.7268246,75.8942944 29.7179977,74.9577149 29.7008843,73.187567 C29.6832305,71.4174191 29.674944,69.873166 29.674944,68.5555371 L28.4919598,68.762653 C27.7377105,68.9024927 26.7862071,68.9617468 25.6374497,68.9449733 C24.4892326,68.9287468 23.2972413,68.8069568 22.0630971,68.580515 C20.8284125,68.3560787 19.6800153,67.8355542 18.6170048,67.0200355 C17.5545348,66.2045167 16.8002855,65.1370313 16.3544372,63.81922 L15.8401354,62.6213756 C15.4973275,61.8239065 14.9576259,60.9380121 14.2203098,59.9669741 C13.4829938,58.9950246 12.7373913,58.3361189 11.983142,57.9891634 L11.6230407,57.728263 C11.3830932,57.5548764 11.1604393,57.345755 10.9545384,57.1030867 C10.7488177,56.8604183 10.5947974,56.6175677 10.491937,56.3743524 C10.3888965,56.1309548 10.4742832,55.931314 10.7489978,55.7747009 C11.0237124,55.6180877 11.5201803,55.5420602 12.2405631,55.5420602 L13.2688065,55.6975794 C13.9546023,55.8366898 14.802885,56.2521978 15.8147355,56.9466558 C16.8260456,57.640567 17.6573951,58.5426879 18.3089642,59.6526539 C19.0979806,61.0758463 20.0485833,62.1602875 21.1634743,62.9065246 C22.2774646,63.6527616 23.4006421,64.025242 24.531926,64.025242 C25.6632098,64.025242 26.6402932,63.9384575 27.4635363,63.7658002 C28.2858788,63.5922313 29.0574216,63.3313309 29.7778044,62.9845576 C30.0863855,60.6585151 30.9265619,58.8715937 32.297613,57.6225172 C30.3434463,57.4146721 28.5865337,57.1016281 27.0259745,56.6853908 C25.466316,56.2686066 23.8545968,55.5921982 22.1918978,54.6543425 C20.5282981,53.7177631 19.1482399,52.5547418 18.0513629,51.1672842 C16.9543058,49.7790974 16.0539624,47.9566235 15.3515937,45.7015036 C14.6488647,43.445472 14.2974101,40.8430319 14.2974101,37.8934539 C14.2974101,33.6937054 15.6520684,30.1198627 18.3608447,27.16992 C17.0919333,24.0124968 17.2117269,20.4729303 18.7205858,16.551585 C19.7149626,16.2389056 21.1895947,16.4735519 23.1437614,17.2540651 C25.0982884,18.034943 26.5293265,18.7038763 27.4383166,19.2584947 C28.3473068,19.8129307 29.0756158,20.2827702 29.6243245,20.6638196 C32.8137162,19.761881 36.1050677,19.3108206 39.4992794,19.3108206 C42.8934912,19.3108206 46.1855632,19.761881 49.3751351,20.6638196 L51.329482,19.4151078 C52.6659461,18.581904 54.2441591,17.8183465 56.060338,17.1242531 C57.8775978,16.4305243 59.2672034,16.2394526 60.2277139,16.5521319 C61.7700789,20.4736595 61.9075262,24.0130438 60.6382546,27.170467 C63.3468507,30.1204096 64.7020495,33.695164 64.7020495,37.8940008 C64.7020495,40.8435788 64.3493339,43.4542234 63.6476858,45.7275754 C62.9451369,48.001292 62.0370474,49.8219427 60.9230571,51.193356 C59.8078058,52.5645871 58.4189207,53.7184924 56.7562217,54.6548895 C55.0931624,55.5920159 53.4809028,56.2684243 51.9212443,56.6852085 C50.3608652,57.1019927 48.6039526,57.415219 46.6497859,57.6234288 C48.4320983,59.1844554 49.3234347,61.6485144 49.3234347,65.014512 L49.3234347,75.9969407 C49.3234347,76.6208408 49.5378022,77.14173 49.9668974,77.5579672 C50.3954522,77.9734752 51.072241,78.0958121 51.9981644,77.9216963 C59.9537198,75.2501567 66.4427494,70.4352596 71.4656136,63.4771871 C76.4879374,56.5196617 79,48.6862694 79,39.9750049 C78.9981986,32.7239437 77.2313782,26.0358877 73.7013403,19.9108367 Z" id="Shape"></path>
                    </g>
                </g>
            </g>
        </g>
    </g>
</svg>