<?xml version="1.0" encoding="UTF-8"?>
<svg width="88px" height="125px" viewBox="0 0 88 125" version="1.1" xmlns="http://www.w3.org/2000/svg" xmlns:xlink="http://www.w3.org/1999/xlink">
    <!-- Generator: Sketch 47.1 (45422) - http://www.bohemiancoding.com/sketch -->
    <title>HTML5_logo_and_wordmark</title>
    <desc>Created with Sketch.</desc>
    <defs></defs>
    <g id="Full-Page-Ideas" stroke="none" stroke-width="1" fill="none" fill-rule="evenodd">
        <g id="Idea-9" transform="translate(-1166.000000, -6531.000000)" fill-rule="nonzero">
            <g id="Skills" transform="translate(0.000000, 5855.000000)">
                <g id="Group-13" transform="translate(856.000000, 293.000000)">
                    <g id="HTML5_logo_and_wordmark" transform="translate(310.000000, 383.000000)">
                        <path d="M8,0 L13.5964853,0 L13.5964853,5.6173913 L18.7549848,5.6173913 L18.7549848,0 L24.3514701,0 L24.3514701,17 L18.7549848,17 L18.7549848,11.3333333 L13.6451504,11.3333333 L13.6451504,17 L8,17 M31.7485637,5.66666667 L26.8090571,5.66666667 L26.8090571,0 L42.3088881,0 L42.3088881,5.66666667 L37.345049,5.66666667 L37.345049,17 L31.7485637,17 M44.7664752,0 L50.6306185,0 L54.2318351,5.98695652 L57.8330517,0 L63.697195,0 L63.697195,17 L58.1007097,17 L58.1007097,8.57391304 L54.18317,14.684058 L50.2656303,8.57391304 L50.2656303,17 L44.7664752,17 M66.4711051,0 L72.0675904,0 L72.0675904,11.3826087 L80,11.3826087 L80,17 L66.4711051,17" id="Shape" fill="#000000"></path>
                        <polyline id="Shape" fill="#E44D26" points="8.00441014 114.93437 0 24 88 24 79.9955899 114.88527 43.9272326 125"></polyline>
                        <polyline id="Shape" fill="#F16529" points="45 118 45 32 81 32 74.1301416 109.756795"></polyline>
                        <path d="M16,43 L44,43 L44,54.1162068 L28.2315789,54.1162068 L29.2631579,65.5017489 L44,65.5017489 L44,76.5934707 L19.045614,76.5934707 M19.5368421,82.1760591 L30.7368421,82.1760591 L31.522807,91.0641275 L44,94.3940925 L44,106 L21.1087719,99.6338904" id="Shape" fill="#EBEBEB"></path>
                        <path d="M71,43 L43,43 L43,54.1248541 L69.9666081,54.1248541 M68.9578207,65.5192532 L43,65.5192532 L43,76.6441074 L56.7785589,76.6441074 L55.4745167,91.1015169 L43,94.4340723 L43,106 L65.8822496,99.6779463" id="Shape" fill="#FFFFFF"></path>
                    </g>
                </g>
            </g>
        </g>
    </g>
</svg>