<?xml version="1.0" encoding="UTF-8"?>
<svg width="79px" height="79px" viewBox="0 0 79 79" version="1.1" xmlns="http://www.w3.org/2000/svg" xmlns:xlink="http://www.w3.org/1999/xlink">
    <!-- Generator: Sketch 47.1 (45422) - http://www.bohemiancoding.com/sketch -->
    <title>invision</title>
    <desc>Created with Sketch.</desc>
    <defs></defs>
    <g id="Full-Page-Ideas" stroke="none" stroke-width="1" fill="none" fill-rule="evenodd">
        <g id="Idea-9" transform="translate(-1259.000000, -6241.000000)" fill-rule="nonzero">
            <g id="Skills" transform="translate(0.000000, 5855.000000)">
                <g id="Group-13" transform="translate(856.000000, 293.000000)">
                    <g id="invision" transform="translate(403.000000, 93.000000)">
                        <path d="M71.8384648,0 L7.16153516,0 C3.20628906,0 0,3.20628906 0,7.16153516 L0,71.8384648 C0,75.7937109 3.20628906,79 7.16153516,79 L71.8384648,79 C75.7937109,79 79,75.7937109 79,71.8384648 L79,7.16153516 C79,3.20628906 75.7937109,0 71.8384648,0" id="Shape" fill="#DC395F"></path>
                        <path d="M26.0721669,25.6111815 C28.7155257,25.6111815 30.9299211,23.5309472 30.9299211,20.8044992 C30.9299211,18.0799224 28.7155257,16 26.0721669,16 C23.4288081,16 21.2150339,18.0799224 21.2150339,20.8044992 C21.2150339,23.5306354 23.4288081,25.6111815 26.0721669,25.6111815 M16.000069,51.3474538 C15.7146111,52.5669015 15.5714162,53.8836555 15.5714162,54.9577675 C15.5714162,59.1902802 17.8572538,62 22.715008,62 C26.7437229,62 30.0098707,59.5979063 32.3615593,55.7190646 L30.9255725,61.5053596 L38.925538,61.5053596 L43.4978343,43.092323 C44.6409084,38.4303526 46.8553038,36.0104819 50.2130839,36.0104819 C52.8561321,36.0104819 54.4989905,37.6609466 54.4989905,40.3855234 C54.4989905,41.1748897 54.4275484,42.0347406 54.1417798,42.9675713 L51.7841895,51.4310374 C51.4269789,52.6504851 51.2847159,53.8705566 51.2847159,55.0173364 C51.2847159,59.0352763 53.6413743,61.974114 58.5705707,61.974114 C62.7853457,61.974114 66.1425046,59.2498491 68,52.7225292 L64.8571675,51.504329 C63.2854406,55.8771874 61.9280402,56.6678012 60.8564082,56.6678012 C59.7847763,56.6678012 59.2132392,55.9511028 59.2132392,54.517394 C59.2132392,53.8718041 59.3567447,53.1554175 59.5704499,52.2927597 L61.8569087,44.0472972 C62.4281351,42.111151 62.6427721,40.394256 62.6427721,38.816771 C62.6427721,32.648424 58.9277813,29.4292068 54.4275484,29.4292068 C50.2130839,29.4292068 45.9265561,33.2462964 43.7839134,37.2636125 L45.3550191,30.0529652 L33.1402785,30.0529652 L31.4256674,36.4040734 L37.1407272,36.4040734 L33.6214257,50.5509143 C30.8578578,56.7192613 25.7814285,56.8193745 25.1443511,56.6762219 C24.0981898,56.4391937 23.4291187,56.0403002 23.4291187,54.6755168 C23.4291187,53.8880218 23.572003,52.7568359 23.9292136,51.3929881 L29.2873734,30.0529652 L15.7146111,30.0529652 L14,36.4040734 L19.6429964,36.4040734 L16.0003796,51.3474538" id="Shape" fill="#FFFFFF"></path>
                    </g>
                </g>
            </g>
        </g>
    </g>
</svg>