<?xml version="1.0" encoding="UTF-8"?>
<svg width="111px" height="111px" viewBox="0 0 111 111" version="1.1" xmlns="http://www.w3.org/2000/svg" xmlns:xlink="http://www.w3.org/1999/xlink">
    <!-- Generator: Sketch 47.1 (45422) - http://www.bohemiancoding.com/sketch -->
    <title>laravel</title>
    <desc>Created with Sketch.</desc>
    <defs></defs>
    <g id="Full-Page-Ideas" stroke="none" stroke-width="1" fill="none" fill-rule="evenodd">
        <g id="Idea-9" transform="translate(-980.000000, -6319.000000)" fill-rule="nonzero" fill="#F35045">
            <g id="Skills" transform="translate(0.000000, 5855.000000)">
                <g id="Group-13" transform="translate(856.000000, 293.000000)">
                    <g id="laravel" transform="translate(124.000000, 171.000000)">
                        <path d="M70.0201322,90.9517041 C70.8778554,92.2016328 71.4019242,92.1055843 72.068804,91.8170061 C72.7356837,91.5284279 107.045039,79.8468519 108.093176,79.4626578 C109.141314,79.0780311 108.808088,78.7414287 108.474863,78.2122966 C108.141209,77.6835971 96.7047571,62.0121139 96.1326558,61.0987878 C95.5609833,60.1854616 95.2749326,60.3775586 94.3696059,60.6661368 L58,70.2134456 C58,70.2134456 69.1624091,89.7013429 70.0201322,90.9517041 Z M111,74.9933734 L111,56.6498379 C106.908232,57.7496367 101.73273,59.1401768 99.6896337,59.6883456 C102.771862,63.8487173 107.59055,70.3596816 111,74.9933734 Z M99.654467,37.095745 C99.093945,37.2242424 86.682691,39.4870069 85.9180308,39.5895452 C85.1537995,39.6925161 85.4085432,40.1294936 85.7143215,40.566471 L96.6361393,55.6845936 C96.6361393,55.6845936 109.99046,52.3423649 110.806155,52.1623821 C110.872199,52.147672 110.936957,52.1320966 111,52.1160885 L111,50.1142125 C108.572643,47.0090765 101.959598,38.5546441 101.387926,37.7646234 C100.700032,36.8132239 100.215418,36.9676803 99.654467,37.095745 L99.654467,37.095745 Z" id="Shape"></path>
                        <path d="M20.3054256,12.4495652 C23.0008563,12.3256522 23.2468729,12.9456522 24.4309356,14.7208696 L54.1808862,65 L91.5883202,55.9413043 C89.515673,52.9713043 80.1068263,39.4865217 79.1971669,38.1995652 C78.1752515,36.7526087 79.2229728,36.0808696 80.8844454,35.7969565 C82.5454879,35.5126087 96.8583238,33.083913 98.0849663,32.9030435 C99.3120388,32.7221739 100.283633,32.2830435 102.276712,34.7117391 C103.296906,35.9543478 106.754903,40.3073913 110,44.3878261 L110,20.8695652 C110,15.1208696 107.980685,10.2052174 103.942915,6.12304348 C99.9047153,2.04130435 95.0420155,0 89.355246,0 L20.5393994,0 C14.8526299,0 9.98993016,2.04130435 5.95173026,6.12304348 C3.63564692,8.46521739 1.9870773,11.0813043 1,13.9713043 C7.74309277,13.4113043 18.4194413,12.5365217 20.3058557,12.4495652 L20.3054256,12.4495652 Z" id="Shape"></path>
                        <path d="M72.9690586,96.9476611 C69.789082,97.9103044 68.3629922,98.3881601 66.2917148,95.4997971 C64.7403164,93.3366658 56.3507109,78.2385029 52.237207,70.7955635 C44.4520312,72.8326241 30.2045742,76.5480285 26.0958398,77.5344996 C22.0859648,78.4971429 20.3732695,76.094867 19.7146406,74.6145106 C19.2528633,73.5756183 7.49640234,48.2496956 0,32 L0,90.2048259 C0,95.9334631 2.03572266,100.830727 6.10630078,104.898783 C10.1773125,108.965972 15.0795234,111 20.8125,111 L90.1875,111 C95.9204766,111 100.822687,108.965972 104.893699,104.898783 C108.964277,100.830727 111,95.9334631 111,90.2048259 L111,83.3679792 C102.484219,86.4803236 75.1114453,96.2991116 72.9690586,96.9476611 Z" id="Shape"></path>
                        <path d="M26.5024926,71.8657592 C27.6439332,71.6072609 49.0296992,66.5424314 49.4862754,66.4455489 C49.9428516,66.3486663 50.236114,66.0906024 49.7470506,65.2521121 C49.2579873,64.4136217 21.2400129,16.5545026 21.2400129,16.5545026 C20.9814327,16.1152727 21.0551873,15.9688627 20.3523234,16.0053566 C19.7258481,16.0383749 3.87255645,17.4381759 0.202386183,17.7414227 C0.0940474011,18.5094089 0.0264925219,19.2824905 0,20.0574808 C3.72592524,27.6060664 25.1112523,71.25188 25.2311035,71.6072609 C25.3614911,71.9947911 25.3614911,72.1238231 26.5024926,71.8657592 Z" id="Shape"></path>
                    </g>
                </g>
            </g>
        </g>
    </g>
</svg>