<?xml version="1.0" encoding="UTF-8"?>
<svg width="141px" height="74px" viewBox="0 0 141 74" version="1.1" xmlns="http://www.w3.org/2000/svg" xmlns:xlink="http://www.w3.org/1999/xlink">
    <!-- Generator: Sketch 47.1 (45422) - http://www.bohemiancoding.com/sketch -->
    <title>PHP-logo</title>
    <desc>Created with Sketch.</desc>
    <defs>
        <path d="M0.130902778,36.9506173 C0.130902778,16.6219568 31.2925608,0.141728395 69.7309028,0.141728395 C108.169245,0.141728395 139.330903,16.6222099 139.330903,36.9506173 C139.330903,57.2790247 108.169245,73.7595062 69.7309028,73.7595062 C31.2925608,73.7595062 0.130902778,57.2785185 0.130902778,36.9506173" id="path-1"></path>
        <radialGradient cx="30.0202546%" cy="82.4223047%" fx="30.0202546%" fy="82.4223047%" r="0.180844907%" gradientTransform="translate(0.300203,0.824223),scale(0.528863,1.000000),translate(-0.300203,-0.824223)" id="radialGradient-3">
            <stop stop-color="#AEB2D5" offset="0%"></stop>
            <stop stop-color="#AEB2D5" offset="30%"></stop>
            <stop stop-color="#484C89" offset="75%"></stop>
            <stop stop-color="#484C89" offset="100%"></stop>
        </radialGradient>
        <polygon id="path-4" points="0 82 145 82 145 0 0 0"></polygon>
        <polygon id="path-6" points="0 82 145 82 145 0 0 0"></polygon>
    </defs>
    <g id="Full-Page-Ideas" stroke="none" stroke-width="1" fill="none" fill-rule="evenodd">
        <g id="Idea-9" transform="translate(-1216.000000, -6361.000000)">
            <g id="Skills" transform="translate(0.000000, 5855.000000)">
                <g id="Group-13" transform="translate(856.000000, 293.000000)">
                    <g id="PHP-logo" transform="translate(358.000000, 209.000000)">
                        <g id="g3438" transform="translate(72.500000, 41.000000) scale(-1, 1) rotate(-180.000000) translate(-72.500000, -41.000000) ">
                            <g id="g3440" transform="translate(2.769097, 4.049383)">
                                <g id="g3442-Clipped">
                                    <mask id="mask-2" fill="white">
                                        <use xlink:href="#path-1"></use>
                                    </mask>
                                    <g id="path3446"></g>
                                    <g id="g3442" mask="url(#mask-2)" fill-rule="nonzero" fill="url(#radialGradient-3)">
                                        <g id="g3448">
                                            <g id="g3450">
                                                <path d="M0.130902778,36.9506173 C0.130902778,16.6219568 31.2925608,0.141728395 69.7309028,0.141728395 C108.169245,0.141728395 139.330903,16.6222099 139.330903,36.9506173 C139.330903,57.2790247 108.169245,73.7595062 69.7309028,73.7595062 C31.2925608,73.7595062 0.130902778,57.2785185 0.130902778,36.9506173" id="path3462"></path>
                                            </g>
                                        </g>
                                    </g>
                                </g>
                            </g>
                            <g id="g3464">
                                <g id="g3466-Clipped">
                                    <mask id="mask-5" fill="white">
                                        <use xlink:href="#path-4"></use>
                                    </mask>
                                    <g id="path3470"></g>
                                    <g id="g3466" mask="url(#mask-5)">
                                        <g transform="translate(5.538194, 6.833333)" id="g3472">
                                            <g transform="translate(0.000000, 0.091111)">
                                                <path d="M66.9618056,0 C103.899045,0 133.843056,15.2560494 133.843056,34.0755556 C133.843056,52.8950617 103.899045,68.1518704 66.9618056,68.1518704 C30.024566,68.1518704 0.0805555556,52.8953148 0.0805555556,34.0763148 C0.0805555556,15.2560494 30.024566,0 66.9618056,0" id="path3474" fill="#777BB3" fill-rule="nonzero"></path>
                                            </g>
                                        </g>
                                    </g>
                                </g>
                            </g>
                            <g id="g3476">
                                <g id="g3478-Clipped">
                                    <mask id="mask-7" fill="white">
                                        <use xlink:href="#path-6"></use>
                                    </mask>
                                    <g id="path3482"></g>
                                    <g id="g3478" mask="url(#mask-7)">
                                        <g transform="translate(23.159722, 18.728395)">
                                            <g id="g3484" transform="translate(0.687240, 0.837716)">
                                                <path d="M16.8663194,17.2098765 C19.9035156,17.2098765 22.1709028,17.7729938 23.6052951,18.8827778 C25.0250868,19.981679 26.0050955,21.885142 26.5188889,24.5402716 C26.9979427,27.022037 26.815434,28.7549198 25.9766493,29.6900741 C25.1189844,30.6452222 23.2646962,31.1296296 20.4653906,31.1296296 L15.6119184,31.1296296 L12.9208594,17.2098765 L16.8663194,17.2098765 Z M0.991085069,0.0632716049 C0.76578125,0.0632716049 0.551805556,0.164506173 0.408567708,0.339641975 C0.265078125,0.514271605 0.207178819,0.744580247 0.249973958,0.967296296 L7.38115451,37.854642 C7.45164062,38.2114938 7.76127604,38.4691358 8.12377604,38.4691358 L23.4922656,38.4691358 C28.3230816,38.4691358 31.9178733,37.1505556 34.1784635,34.5495864 C36.4516406,31.9352037 37.151467,28.2801296 36.2648524,23.6871173 C35.9036111,21.8155432 35.2818229,20.0775988 34.4171094,18.5216235 C33.5511372,16.9638765 32.4072483,15.5225494 31.0161545,14.2368704 C29.3473958,12.6695062 27.4639062,11.5331481 25.4152778,10.865 C23.4013889,10.2044444 20.8140451,9.87037037 17.7257465,9.87037037 L11.5023264,9.87037037 L9.72506944,0.677765432 C9.65609375,0.32091358 9.34545139,0.0632716049 8.98395833,0.0632716049 L0.991336806,0.0632716049 L0.991085069,0.0632716049 Z" id="path3486" fill="#000000" fill-rule="nonzero"></path>
                                            </g>
                                            <g id="g3488" transform="translate(0.055382, 0.078457)">
                                                <path d="M16.8663194,31.1296296 L21.0975,31.1296296 C24.4757986,31.1296296 25.6496441,30.3842901 26.0483941,29.9401235 C26.7099566,29.2026296 26.8348177,27.6476667 26.4096354,25.443537 C25.9318403,22.9759444 25.0462326,21.226358 23.7769792,20.2438765 C22.4775174,19.2381111 20.3649479,18.7283951 17.4986806,18.7283951 L14.4687847,18.7283951 L16.8663194,31.1296296 Z M24.1238715,39.9876543 L8.754375,39.9876543 C8.03138889,39.9876543 7.41010417,39.4723704 7.27164931,38.7589198 L0.140720486,1.87157407 C0.0526128472,1.42614198 0.170928819,0.965524691 0.455390625,0.615759259 C0.742369792,0.265740741 1.17032118,0.0632716049 1.62092882,0.0632716049 L9.61355035,0.0632716049 C10.336033,0.0632716049 10.9578212,0.578555556 11.096276,1.29200617 L12.7554687,9.87037037 L18.3565972,9.87037037 C21.5234375,9.87037037 24.1910851,10.2176049 26.28125,10.9022037 C28.4310764,11.6045185 30.4097222,12.7952901 32.1607986,14.4413642 C33.6082812,15.7827222 34.8015104,17.2860556 35.7052431,18.9108704 C36.6089757,20.5356852 37.2584549,22.3528457 37.6353038,24.3016111 C38.5705035,29.1380926 37.8107639,33.0103148 35.3772309,35.8094506 C32.9691233,38.5830247 29.1825087,39.9876543 24.1246267,39.9876543 L24.1238715,39.9876543 Z M12.6371528,17.2098765 L17.4981771,17.2098765 C20.7209028,17.2098765 23.1212066,17.8198148 24.6983333,19.0407037 C26.2757118,20.2615926 27.3395486,22.2994444 27.8923611,25.1542593 C28.4210069,27.8959444 28.1803472,29.830537 27.1698785,30.9575309 C26.1578993,32.0845247 24.133941,32.6481481 21.0972483,32.6481481 L15.6212326,32.6481481 L12.6366493,17.2098765 L12.6371528,17.2098765 Z M24.1238715,38.4691358 C28.7477604,38.4691358 32.1207726,37.2492593 34.2411458,34.8095062 C36.3607639,32.3692469 36.9991667,28.9632099 36.1533333,24.5908889 C35.8051823,22.7896728 35.2163715,21.1428395 34.3874045,19.650642 C33.5591927,18.1579383 32.4742101,16.7927901 31.134974,15.5546914 C29.538967,14.0538889 27.7667448,12.9833333 25.8157899,12.3473272 C23.8645833,11.7070185 21.3799479,11.3888889 18.3591146,11.3888889 L11.5118924,11.3888889 L9.61581597,1.58179012 L1.62319444,1.58179012 L8.754375,38.4691358 L24.1238715,38.4691358 L24.1238715,38.4691358 Z" id="path3490" fill="#FFFFFF" fill-rule="nonzero"></path>
                                            </g>
                                            <g id="g3492" transform="translate(34.885590, 10.708086)">
                                                <path d="M20.390625,0 C20.1650694,0 19.9513455,0.101234568 19.8081076,0.27637037 C19.6646181,0.451 19.6062153,0.681308642 19.6495139,0.904024691 L22.8037674,17.2255679 C23.1038368,18.7774938 23.0298264,19.8915802 22.5955816,20.362321 C22.3289931,20.6500802 21.5309896,21.132716 19.1697049,21.132716 L13.4552951,21.132716 L9.48919271,0.614493827 C9.41996528,0.257641975 9.10907118,0 8.74782986,0 L0.818142361,0 C0.592586806,0 0.378862847,0.101234568 0.235373264,0.27637037 C0.0918836806,0.451 0.033984375,0.681308642 0.0767795139,0.904024691 L7.20796007,37.7913704 C7.27693576,38.1482222 7.5880816,38.4058642 7.94932292,38.4058642 L15.8790104,38.4058642 C16.104566,38.4058642 16.3182899,38.3046296 16.4617795,38.13 C16.6052691,37.9546111 16.6631684,37.7245556 16.6203733,37.5018395 L14.8995052,28.5987654 L21.0476563,28.5987654 C25.7309549,28.5987654 28.9068576,27.768642 30.7566146,26.0608148 C32.6421181,24.3185679 33.2304253,21.5330988 32.5054253,17.7798272 L29.1875434,0.615 C29.118316,0.257641975 28.8079253,0 28.4461806,0 L20.390625,0 Z" id="path3494" fill="#000000" fill-rule="nonzero"></path>
                                            </g>
                                            <g id="g3496" transform="translate(34.150521, 9.885556)">
                                                <path d="M16.6145833,39.9876543 L8.68489583,39.9876543 C7.96165799,39.9876543 7.34012153,39.4723704 7.20217014,38.7589198 L0.0709895833,1.87157407 C-0.0151041667,1.42614198 0.101197917,0.965524691 0.388177083,0.615759259 C0.67515625,0.265740741 1.10260417,0.0632716049 1.55371528,0.0632716049 L9.48340278,0.0632716049 C10.2063889,0.0632716049 10.8281771,0.578555556 10.9661285,1.29200617 L14.8134115,21.1959877 L19.906033,21.1959877 C22.2627865,21.1959877 22.7574479,20.6898148 22.7773351,20.6680494 C22.9208247,20.5136667 23.1096267,19.7974321 22.7999913,18.1928642 L19.6457378,1.87132099 C19.5601476,1.42588889 19.6759462,0.965777778 19.9629253,0.616012346 C20.2499045,0.265740741 20.6778559,0.0632716049 21.1284635,0.0632716049 L29.1840191,0.0632716049 C29.9065017,0.0632716049 30.5282899,0.578555556 30.6667448,1.29200617 L33.9818576,18.4575926 C34.7607292,22.4867284 34.0946354,25.5095926 32.0032118,27.4421605 C30.0074479,29.2846296 26.6643924,30.1805556 21.7827257,30.1805556 L16.5511458,30.1805556 L18.097309,38.1793519 C18.1828993,38.624784 18.0671007,39.0854012 17.7801215,39.4346605 C17.4931424,39.7851852 17.0656944,39.9876543 16.6145833,39.9876543 M16.6145833,38.4691358 L14.7190104,28.662037 L21.7827257,28.662037 C26.2278819,28.662037 29.293776,27.8820247 30.9811632,26.3240247 C32.6685503,24.7650123 33.1737847,22.2392099 32.4996354,18.7471235 L29.1817535,1.58179012 L21.1261979,1.58179012 L24.2804514,17.9028272 C24.6396788,19.7594691 24.5077691,21.0259136 23.8844705,21.7011481 C23.2601649,22.3763827 21.9335156,22.7145062 19.9045226,22.7145062 L13.5658073,22.7145062 L9.48013021,1.58179012 L1.55044271,1.58179012 L8.68489583,38.4691358 L16.6145833,38.4691358" id="path3498" fill="#FFFFFF" fill-rule="nonzero"></path>
                                            </g>
                                            <g id="g3500" transform="translate(63.072483, 0.837716)">
                                                <path d="M16.8663194,17.2098765 C19.9035156,17.2098765 22.1709028,17.7729938 23.6052951,18.8827778 C25.0250868,19.9811728 26.0050955,21.8848889 26.5191406,24.5402716 C26.9981944,27.022037 26.8156858,28.7549198 25.9766493,29.6900741 C25.1189844,30.6452222 23.2646962,31.1296296 20.4653906,31.1296296 L15.6119184,31.1296296 L12.9208594,17.2098765 L16.8663194,17.2098765 Z M0.991336806,0.0632716049 C0.766032986,0.0632716049 0.552057292,0.164506173 0.408819444,0.339641975 C0.265329861,0.514271605 0.206927083,0.744580247 0.250225694,0.967296296 L7.38115451,37.854642 C7.45164063,38.2114938 7.76127604,38.4691358 8.12377604,38.4691358 L23.4922656,38.4691358 C28.3230816,38.4691358 31.9178733,37.1505556 34.1784635,34.5495864 C36.4516406,31.9352037 37.151467,28.2806358 36.2653559,23.6871173 C35.9043663,21.8155432 35.2828299,20.0775988 34.4176128,18.5216235 C33.5516406,16.9638765 32.4082552,15.5225494 31.016658,14.2368704 C29.3473958,12.6695062 27.4639063,11.5331481 25.4152778,10.865 C23.4013889,10.2044444 20.8140451,9.87037037 17.7257465,9.87037037 L11.5018229,9.87037037 L9.72557292,0.677765432 C9.65634549,0.32091358 9.34545139,0.0632716049 8.98395833,0.0632716049 L0.991336806,0.0632716049 Z" id="path3502" fill="#000000" fill-rule="nonzero"></path>
                                            </g>
                                            <g id="g3504" transform="translate(62.440625, 0.078457)">
                                                <path d="M16.8663194,31.1296296 L21.0975,31.1296296 C24.4757986,31.1296296 25.6496441,30.3842901 26.0483941,29.9401235 C26.7104601,29.2026296 26.8350694,27.6476667 26.4096354,25.4437901 C25.9318403,22.9761975 25.0459809,21.226358 23.7769792,20.2438765 C22.4775174,19.2381111 20.3649479,18.7283951 17.4986806,18.7283951 L14.4690365,18.7283951 L16.8663194,31.1296296 Z M24.1238715,39.9876543 L8.75462674,39.9876543 C8.03164062,39.9876543 7.4103559,39.4723704 7.27190104,38.7589198 L0.140972222,1.87157407 C0.0548784722,1.42614198 0.171180556,0.965524691 0.458159722,0.615759259 C0.745138889,0.265740741 1.17233507,0.0632716049 1.62369792,0.0632716049 L9.61631944,0.0632716049 C10.3388021,0.0632716049 10.9605903,0.578555556 11.0990451,1.29200617 L12.7567274,9.87037037 L18.3578559,9.87037037 C21.5246962,9.87037037 24.1913368,10.2176049 26.2820052,10.9022037 C28.4318316,11.6045185 30.4104774,12.7952901 32.1615538,14.4418704 C33.6090365,15.7806975 34.7997483,17.2840309 35.7034809,18.9101111 C36.6074653,20.5366975 37.2569444,22.3505679 37.6345486,24.301358 C38.5697483,29.1365741 37.8100087,33.0082901 35.3764757,35.8084383 C32.9691233,38.5815062 29.1817535,39.9876543 24.124375,39.9876543 L24.1238715,39.9876543 Z M12.6371528,17.2098765 L17.4981771,17.2098765 C20.7209028,17.2098765 23.1212066,17.8198148 24.6983333,19.0407037 C26.2762153,20.2615926 27.3395486,22.2994444 27.8923611,25.1542593 C28.4215104,27.8959444 28.180599,29.830537 27.1698785,30.9575309 C26.1578993,32.0845247 24.133941,32.6481481 21.0972483,32.6481481 L15.6212326,32.6481481 L12.6371528,17.2098765 L12.6371528,17.2098765 Z M24.1238715,38.4691358 C28.7477604,38.4691358 32.1207726,37.2492593 34.2411458,34.8095062 C36.3607639,32.3692469 36.9991667,28.9632099 36.1533333,24.5908889 C35.8051823,22.7896728 35.2163715,21.1428395 34.3874045,19.650642 C33.5591927,18.1579383 32.4742101,16.7927901 31.134974,15.5546914 C29.538967,14.0538889 27.7667448,12.9833333 25.8157899,12.3473272 C23.8645833,11.7070185 21.3799479,11.3888889 18.3591146,11.3888889 L11.5118924,11.3888889 L9.61631944,1.58179012 L1.62369792,1.58179012 L8.754375,38.4691358 L24.1238715,38.4691358 L24.1238715,38.4691358 Z" id="path3506" fill="#FFFFFF" fill-rule="nonzero"></path>
                                            </g>
                                        </g>
                                    </g>
                                </g>
                            </g>
                        </g>
                    </g>
                </g>
            </g>
        </g>
    </g>
</svg>