<?xml version="1.0" encoding="UTF-8"?>
<svg width="118px" height="88px" viewBox="0 0 118 88" version="1.1" xmlns="http://www.w3.org/2000/svg" xmlns:xlink="http://www.w3.org/1999/xlink">
    <!-- Generator: Sketch 47.1 (45422) - http://www.bohemiancoding.com/sketch -->
    <title>sass-1</title>
    <desc>Created with Sketch.</desc>
    <defs></defs>
    <g id="Full-Page-Ideas" stroke="none" stroke-width="1" fill="none" fill-rule="evenodd">
        <g id="Idea-9" transform="translate(-856.000000, -6228.000000)" fill-rule="nonzero" fill="#CF649A">
            <g id="Skills" transform="translate(0.000000, 5855.000000)">
                <g id="Group-13" transform="translate(856.000000, 293.000000)">
                    <g id="sass-1" transform="translate(0.000000, 80.000000)">
                        <path d="M101.580057,50.532073 C97.4543058,50.555234 93.8817283,51.5410662 90.8853729,53.008922 C89.7790263,50.830414 88.6726797,48.9268566 88.4885191,47.5053228 C88.2810791,45.8542431 88.0275414,44.8450206 88.2810791,42.8731269 C88.5343864,40.9007746 89.6868308,38.1031117 89.6868308,37.873795 C89.6635514,37.6674101 89.4330625,36.6584169 87.0592576,36.6354852 C84.6854527,36.6125536 82.6338713,37.0941185 82.4033824,37.7132734 C82.1728935,38.3324283 81.7119158,39.7541914 81.4122803,41.2218178 C80.9974003,43.3773942 76.6642095,51.013638 74.1979786,55.026679 C73.3912675,53.4673259 72.6998009,52.0914261 72.5612771,50.990477 C72.3540676,49.3396266 72.1002993,48.3304041 72.3540676,46.3585104 C72.6076053,44.386158 73.7600497,41.5887244 73.7600497,41.3594078 C73.7370008,41.1530228 73.5065119,40.1440297 71.132707,40.121098 C68.7584412,40.0981663 66.7073207,40.5797313 66.4768318,41.1988862 C66.2463429,41.8180411 65.9928052,43.2856675 65.4857297,44.7074306 C65.0014726,46.1291937 59.2392507,58.8791984 57.7410731,62.2042895 C56.9804598,63.9012326 56.3122726,65.2542007 55.8280154,66.1714672 C55.3439888,67.0887338 55.8049665,66.2402622 55.7588688,66.3319889 C55.3439888,67.1116654 55.1134999,67.547367 55.1134999,67.547367 L55.1134999,67.570528 C54.7908155,68.1438196 54.4450822,68.6939502 54.2835095,68.6939502 C54.1682651,68.6939502 53.9377762,67.1575287 54.3296073,65.0480451 C55.1824161,60.6220048 57.2568159,53.7198035 57.2339976,53.4675552 C57.2339976,53.3528969 57.6255981,52.1372894 55.8969316,51.5183639 C54.2143628,50.899209 53.6153223,51.9311338 53.4767984,51.9311338 C53.3385051,51.9311338 53.2232607,52.2980404 53.2232607,52.2980404 C53.2232607,52.2980404 55.0902205,44.5244359 49.6506832,44.5244359 C46.2394478,44.5244359 41.5374749,48.2164337 39.2095372,51.5873882 C37.7344085,52.3899964 34.5997598,54.0867101 31.28072,55.8985408 C30.0130312,56.5864907 28.6992447,57.3203039 27.4546048,57.9853222 L27.2012975,57.7096836 C20.6093157,50.7155263 8.41645438,45.7622871 8.9235299,36.3603053 C9.107921,32.9434875 10.3064631,23.9313439 32.3414298,13.0158723 C50.3887085,4.0725237 64.8403608,6.52621165 67.352459,11.9839475 C70.9250366,19.7807129 59.6310818,34.2735239 40.8695181,36.3603053 C33.7243631,37.1629135 29.9671639,34.4111139 29.0223901,33.3791891 C28.0312879,32.3014009 27.8929946,32.2555376 27.5242124,32.4619226 C26.9249413,32.7829658 27.2937235,33.7460957 27.5242124,34.3193873 C28.0773857,35.764082 30.3822744,38.3324283 34.3005852,39.6166014 C37.7346389,40.7402529 46.1246644,41.3594078 56.2661748,37.4610251 C67.6292762,33.0810775 76.5030978,20.927296 73.8985735,10.7685693 C71.2479515,0.42638928 54.0073838,-2.96749685 37.7118205,2.78835057 C28.0080085,6.22810003 17.497716,11.5941092 9.93768094,18.6341297 C0.948614915,26.9812551 -0.480416094,34.2735239 0.118854974,37.3005035 C2.2165342,48.1013168 17.1750315,55.1413373 23.1677422,60.3468248 C22.8681067,60.5071171 22.59152,60.6676388 22.3379823,60.8054581 C19.3416269,62.2728552 7.93242775,68.2123852 5.07436573,74.4954316 C1.84752152,81.6042471 5.58144125,86.7182373 8.07072107,87.4061872 C15.7690494,89.5388319 23.6517688,85.7092441 27.915813,79.4030368 C32.1565777,73.0968295 31.6497327,64.9102258 29.6905773,61.1723647 L29.6212002,61.0347747 L31.9721866,59.6588749 C33.4936437,58.7645401 34.9918214,57.9390002 36.3053774,57.2278893 C35.5680435,59.222944 35.0376887,61.5849053 34.7613325,65.0246548 C34.4386481,69.0608568 36.098168,74.2890466 38.2878122,76.3528963 C39.2558655,77.2470018 40.4083099,77.2701628 41.1228254,77.2701628 C43.658203,77.2701628 44.8106473,75.1831522 46.0783361,72.6838302 C47.6456605,69.633919 49.0285937,66.1024429 49.0285937,66.1024429 C49.0285937,66.1024429 47.2999272,75.6649464 52.024949,75.6649464 C53.7536156,75.6649464 55.4822821,73.4405751 56.2659443,72.2939919 L56.2659443,72.3169236 C56.2659443,72.3169236 56.3120421,72.2481286 56.4042376,72.087607 C56.5009476,71.9453369 56.5931877,71.8001093 56.6808243,71.6521347 L56.6808243,71.6062714 C57.3722909,70.4138249 58.9165663,67.684957 61.221455,63.1674194 C64.194531,57.342777 67.0528235,50.0505081 67.0528235,50.0505081 C67.0528235,50.0505081 67.3294102,51.8391778 68.182219,54.7744307 C68.689064,56.5174664 69.7954106,58.4205651 70.6482194,60.2780298 C69.9567528,61.2411597 69.5418728,61.7917489 69.5418728,61.7917489 L69.5649217,61.8146806 C69.0119789,62.5484938 68.3894285,63.3283996 67.7442901,64.1078469 C65.3933036,66.9055098 62.5813394,70.0932402 62.2125572,71.0105068 C61.7746283,72.0880656 61.8668239,72.8906738 62.7196327,73.5329897 C63.3419527,73.991623 64.4482993,74.0831203 65.6237925,73.991623 C67.7442901,73.8538037 69.2194189,73.3266047 69.9569833,73.0053321 C71.1094277,72.5925622 72.4232142,71.9734073 73.690903,71.0561408 C75.9957918,69.359427 77.4017739,66.9516024 77.2634806,63.7411696 C77.1943339,61.9754315 76.6181117,60.2326251 75.9035962,58.5815454 C76.1110362,58.2834338 76.3187067,57.9850928 76.5259162,57.6642789 C80.1676404,52.3668354 82.9796046,46.5424223 82.9796046,46.5424223 C82.9796046,46.5424223 83.2561912,48.331092 84.1090001,51.2663449 C84.5466984,52.756903 85.4227866,54.3852804 86.2064488,55.9904968 C82.7952135,58.765228 80.651667,61.9756608 79.9141026,64.0853738 C78.5542182,67.9837566 79.6144671,69.7494946 81.6197202,70.1622646 C82.5183964,70.3457179 83.8093645,69.9329479 84.7771873,69.520178 C85.9757294,69.1303397 87.4278093,68.4650922 88.7648753,67.47926 C91.069764,65.7823169 93.2824572,63.4203556 93.1672128,60.2328545 C93.0980661,58.765228 92.706235,57.3205332 92.1761106,55.9446335 C95.0802704,54.752187 98.8370085,54.0642371 103.608359,54.6375287 C113.865113,55.8299751 115.893416,62.2049775 115.501815,64.8650504 C115.109984,67.5253526 112.966437,68.9927497 112.251691,69.451383 C111.537176,69.8870846 111.306687,70.0478356 111.375834,70.3686495 C111.468029,70.8504438 111.790714,70.8272828 112.413034,70.7357854 C113.265842,70.5979661 117.806473,68.5572775 117.990864,63.6501309 C118.267451,57.3430063 112.251691,50.4635074 101.580057,50.532073 L101.580057,50.532073 Z M22.4762756,77.0640072 C19.0880892,80.7560049 14.3169695,82.1548364 12.2886674,80.9623899 C10.0990231,79.7011484 10.9516015,74.2663443 15.1236806,70.3450299 C17.6590582,67.9601369 20.955049,65.7586973 23.1216444,64.4057292 C23.6056711,64.1076176 24.3432355,63.6721453 25.2190932,63.1444877 C25.3573865,63.0529904 25.449582,63.0068977 25.449582,63.0068977 C25.6109243,62.9151711 25.7953154,62.8005128 25.9797065,62.6858544 C27.5239819,68.2811802 26.0488531,73.1885561 22.4762756,77.0640072 L22.4762756,77.0640072 Z M47.2538294,60.3009615 C46.0783361,63.1674194 43.5890563,70.5284832 42.0908786,70.1157133 C40.7999105,69.7717383 40.0164788,64.1993442 41.8371104,58.6957451 C42.7590659,55.9207845 44.7182213,52.6188544 45.8706657,51.3344519 C47.737856,49.2706023 49.7659276,48.5826524 50.2732336,49.4311239 C50.8725047,50.532073 47.9913938,58.5122918 47.2538294,60.3009615 Z M67.6981924,70.0239866 C67.1911168,70.2764642 66.7301391,70.4596882 66.5226991,70.3223276 C66.3613569,70.2306009 66.7299086,69.886626 66.7299086,69.886626 C66.7299086,69.886626 69.2883351,67.1577581 70.3024861,65.8965166 C70.8787083,65.1629327 71.5701749,64.3144612 72.3077393,63.351102 L72.3077393,63.626282 C72.3079698,66.9282121 69.1272234,69.1296518 67.6981924,70.0239866 Z M83.4634007,66.4466472 C83.0946185,66.1714672 83.1409468,65.3229957 84.3853562,62.6629228 C84.8696133,61.6080663 85.9757294,59.8423282 87.8887871,58.1683168 C88.119276,58.8562667 88.2577998,59.5210556 88.2345204,60.1404399 C88.211702,64.2681392 85.2614444,65.8045606 83.4634007,66.4466472 Z" id="Shape"></path>
                    </g>
                </g>
            </g>
        </g>
    </g>
</svg>